<?xml version="1.0" standalone="no"?>
<!DOCTYPE svg PUBLIC "-//W3C//DTD SVG 20010904//EN"
 "http://www.w3.org/TR/2001/REC-SVG-20010904/DTD/svg10.dtd">
<svg version="1.0" xmlns="http://www.w3.org/2000/svg"
 width="900.000000pt" height="600.000000pt" viewBox="0 0 900.000000 600.000000"
 preserveAspectRatio="xMidYMid meet">

<g transform="translate(0.000000,600.000000) scale(0.100000,-0.100000)"
fill="#000000" stroke="none">
<path d="M4606 5751 c-3 -5 -23 -12 -43 -16 -21 -4 -42 -10 -48 -15 -5 -4 -35
-13 -65 -20 -30 -7 -59 -16 -65 -20 -5 -4 -25 -11 -43 -15 -18 -4 -45 -13 -60
-21 -15 -8 -33 -14 -40 -14 -7 0 -20 -4 -30 -10 -31 -17 -111 -50 -122 -50 -5
0 -18 -4 -28 -10 -9 -5 -53 -25 -97 -46 -103 -46 -229 -108 -235 -114 -3 -3
-27 -16 -55 -29 -27 -14 -52 -27 -55 -30 -5 -6 -53 -33 -125 -70 -16 -9 -31
-19 -33 -23 -2 -5 -8 -8 -13 -8 -9 0 -68 -38 -79 -51 -3 -3 -27 -19 -55 -34
-27 -16 -51 -33 -53 -37 -2 -4 -8 -8 -14 -8 -5 0 -20 -8 -33 -17 -12 -10 -33
-25 -45 -33 -12 -8 -28 -19 -34 -25 -6 -5 -40 -30 -76 -55 -36 -24 -88 -62
-116 -85 -28 -22 -61 -47 -73 -55 -13 -8 -35 -25 -49 -38 -15 -13 -40 -33 -55
-45 -15 -12 -40 -32 -55 -45 -15 -13 -40 -33 -55 -45 -122 -96 -264 -230 -398
-378 -43 -46 -93 -102 -114 -124 -20 -22 -50 -60 -68 -85 -17 -25 -37 -51 -44
-58 -7 -8 -26 -30 -41 -50 -15 -21 -35 -46 -45 -57 -10 -11 -28 -36 -40 -55
-12 -19 -38 -57 -59 -85 -35 -46 -37 -53 -33 -105 3 -30 9 -134 15 -230 23
-392 71 -684 177 -1075 95 -352 254 -818 349 -1025 72 -155 139 -296 144 -300
5 -5 26 -43 68 -125 14 -27 31 -57 37 -65 7 -8 24 -35 37 -60 23 -42 79 -133
156 -255 30 -49 81 -85 120 -85 9 0 29 -6 44 -14 14 -8 45 -17 67 -21 23 -4
41 -11 41 -16 0 -5 11 -9 25 -9 14 0 41 -6 59 -14 18 -7 52 -17 74 -21 23 -4
44 -11 48 -16 3 -5 18 -9 34 -9 16 0 47 -6 67 -14 21 -8 61 -17 88 -21 28 -3
79 -12 115 -20 214 -46 486 -74 830 -83 541 -14 875 10 1231 89 48 10 100 19
117 19 17 0 33 4 37 9 3 6 27 13 53 17 26 3 52 10 57 14 6 5 28 12 50 16 22 4
54 13 72 21 18 7 44 13 58 13 14 0 25 5 25 10 0 6 6 10 13 10 14 0 137 35 172
50 12 4 64 72 117 151 98 148 133 205 218 349 11 19 24 42 30 50 36 58 102
183 115 219 8 23 23 54 33 69 10 15 26 45 35 67 9 22 34 81 56 131 71 162 138
354 238 674 155 499 219 874 238 1387 7 176 7 183 -15 217 -12 20 -25 36 -29
36 -4 0 -14 13 -24 29 -16 28 -48 68 -120 155 -17 21 -39 45 -47 54 -8 8 -22
26 -31 40 -21 30 -242 264 -323 341 -33 31 -74 71 -92 89 -18 17 -35 32 -38
32 -3 0 -14 8 -24 18 -19 18 -111 96 -144 122 -10 8 -31 25 -46 38 -15 13 -40
33 -55 45 -15 12 -44 37 -63 55 -20 17 -39 32 -43 32 -5 0 -19 10 -33 23 -48
43 -73 62 -98 74 -29 15 -59 34 -76 48 -6 6 -22 17 -34 25 -12 8 -28 20 -34
25 -6 6 -29 22 -51 35 -22 13 -46 30 -53 37 -7 7 -17 13 -22 13 -5 0 -15 6
-22 13 -19 17 -76 57 -82 57 -9 0 -160 93 -174 107 -7 7 -19 13 -27 13 -7 0
-15 3 -17 8 -7 16 -460 242 -487 242 -6 0 -11 4 -11 9 0 5 -16 12 -35 15 -19
4 -35 11 -35 16 0 6 -7 10 -16 10 -14 0 -87 29 -124 49 -8 4 -39 14 -67 21
-29 8 -53 17 -53 21 0 4 -18 10 -40 14 -22 4 -40 11 -40 16 0 12 -37 12 -44 0z
m34 -101 c0 -5 10 -10 23 -10 12 0 34 -6 49 -14 15 -8 40 -17 57 -21 17 -4 31
-10 31 -15 0 -4 18 -11 40 -15 22 -4 40 -11 40 -16 0 -5 8 -9 18 -9 10 0 26
-6 37 -14 11 -7 35 -17 53 -21 17 -3 32 -11 32 -16 0 -5 11 -9 24 -9 14 0 31
-6 38 -13 7 -8 26 -17 41 -21 15 -3 27 -11 27 -16 0 -6 7 -10 16 -10 18 0 127
-52 132 -62 2 -5 12 -8 22 -8 10 0 25 -6 32 -13 7 -7 37 -24 66 -37 28 -14 52
-28 52 -31 0 -4 11 -10 25 -13 14 -4 25 -11 25 -16 0 -6 5 -10 11 -10 11 0
129 -68 139 -80 3 -3 39 -25 80 -50 72 -42 85 -51 115 -77 7 -7 16 -13 20 -13
6 0 81 -54 112 -80 7 -5 16 -10 20 -10 4 0 22 -14 40 -30 18 -17 36 -30 40
-30 4 0 20 -10 35 -23 14 -12 36 -29 48 -37 12 -8 28 -20 34 -26 6 -6 33 -27
59 -47 26 -20 54 -42 61 -49 8 -7 24 -20 36 -28 12 -8 28 -19 34 -25 6 -5 31
-26 56 -46 25 -20 56 -46 70 -58 14 -12 47 -40 73 -63 72 -62 316 -305 367
-367 25 -29 55 -64 67 -78 11 -13 36 -42 55 -65 18 -23 38 -46 43 -52 6 -6 24
-29 40 -51 16 -22 34 -44 39 -50 6 -5 24 -27 40 -49 l29 -39 -6 -196 c-18
-558 -114 -1015 -355 -1696 -104 -293 -234 -583 -337 -755 -18 -30 -53 -89
-77 -130 -24 -41 -92 -148 -152 -237 -104 -154 -111 -162 -148 -168 -21 -4
-38 -10 -38 -15 0 -4 -22 -10 -50 -14 -27 -4 -50 -11 -50 -15 0 -5 -22 -12
-50 -16 -27 -4 -50 -10 -50 -15 0 -4 -22 -10 -50 -14 -27 -4 -51 -10 -54 -15
-3 -4 -29 -11 -57 -14 -28 -4 -56 -10 -63 -16 -6 -5 -39 -12 -73 -16 -35 -4
-63 -11 -63 -15 0 -5 -36 -12 -80 -16 -45 -3 -78 -9 -74 -13 6 -6 -125 -23
-326 -41 -209 -20 -1140 -11 -1140 10 0 4 -56 11 -125 15 -69 4 -123 11 -120
15 3 5 -33 11 -80 15 -47 4 -85 11 -85 16 0 4 -31 11 -70 15 -38 3 -70 10 -70
15 0 4 -25 11 -55 14 -30 4 -58 11 -60 15 -3 5 -30 12 -60 15 -30 4 -55 11
-55 16 0 4 -22 11 -50 15 -27 4 -50 10 -50 14 0 5 -19 11 -42 15 -24 4 -52 14
-63 21 -11 8 -29 14 -41 14 -45 0 -77 29 -140 130 -35 56 -64 106 -64 111 0 5
-4 9 -10 9 -5 0 -10 5 -10 11 0 6 -13 29 -28 52 -16 23 -36 56 -44 72 -8 17
-51 100 -95 185 -205 397 -376 875 -528 1480 -62 245 -102 535 -126 916 l-12
190 41 61 c23 34 47 67 54 74 8 8 24 30 37 49 13 19 29 40 35 45 6 6 30 35 52
65 23 30 55 69 70 87 16 18 43 49 59 70 17 21 98 106 182 188 177 176 197 194
266 248 62 49 64 51 102 83 17 14 43 35 58 47 15 12 36 29 47 37 10 8 28 22
40 30 12 8 30 22 40 30 10 8 28 22 40 30 13 8 35 25 50 38 15 12 31 22 35 22
3 0 12 6 19 13 8 6 24 19 36 27 12 8 30 22 40 30 10 8 28 22 40 30 12 8 33 23
45 33 13 9 26 17 29 17 6 0 95 60 113 77 7 6 23 15 35 19 12 4 28 13 36 20 7
8 20 14 28 14 8 0 14 4 14 9 0 5 10 13 23 17 12 4 24 9 27 13 3 3 19 13 35 22
77 40 120 65 125 71 3 3 18 10 33 13 15 4 27 11 27 15 0 5 14 11 30 15 17 4
30 11 30 16 0 5 5 9 11 9 5 0 36 12 67 26 107 49 120 54 135 54 9 0 17 4 19 8
3 9 158 71 198 79 14 3 28 10 31 15 3 5 25 12 47 15 23 3 39 9 37 14 -3 4 15
11 40 14 25 4 45 11 45 16 0 4 20 11 45 15 25 3 48 10 51 15 7 12 34 11 34 -1z"/>
<path d="M4553 5573 c-13 -2 -23 -8 -23 -13 0 -4 -20 -11 -45 -14 -25 -4 -45
-11 -45 -15 0 -5 -20 -12 -45 -15 -25 -4 -45 -11 -45 -16 0 -4 -18 -11 -40
-15 -22 -4 -40 -10 -40 -15 0 -4 -18 -10 -40 -14 -22 -3 -40 -10 -40 -14 0 -4
-24 -13 -52 -20 -29 -7 -54 -17 -56 -22 -2 -6 -10 -10 -18 -10 -8 0 -31 -9
-51 -20 -21 -11 -43 -20 -50 -20 -7 0 -13 -4 -13 -9 0 -5 -16 -12 -35 -15 -19
-4 -35 -11 -35 -16 0 -6 -9 -10 -19 -10 -11 0 -26 -7 -34 -15 -8 -7 -26 -17
-41 -21 -14 -3 -26 -10 -26 -14 0 -4 -11 -11 -25 -14 -14 -4 -25 -11 -25 -16
0 -6 -8 -10 -18 -10 -11 0 -29 -9 -42 -20 -13 -11 -29 -20 -37 -20 -7 0 -13
-4 -13 -8 0 -4 -16 -14 -35 -21 -19 -7 -35 -16 -35 -21 0 -4 -11 -11 -25 -14
-14 -4 -25 -11 -25 -16 0 -6 -6 -10 -13 -10 -12 0 -26 -9 -74 -50 -7 -5 -15
-10 -18 -10 -8 0 -69 -44 -73 -52 -2 -5 -10 -8 -18 -8 -8 0 -17 -7 -20 -15 -4
-8 -12 -15 -19 -15 -6 0 -23 -9 -36 -20 -35 -29 -40 -32 -89 -65 -49 -33 -54
-36 -89 -65 -13 -11 -28 -20 -33 -20 -5 0 -6 -4 -3 -10 3 -5 2 -10 -4 -10 -15
0 -81 -47 -75 -53 3 -3 -4 -8 -15 -12 -12 -3 -21 -11 -21 -16 0 -5 -6 -9 -13
-9 -7 0 -20 -8 -28 -17 -9 -10 -28 -27 -43 -37 -15 -11 -37 -28 -49 -39 -116
-99 -159 -139 -274 -254 -73 -73 -145 -150 -160 -170 -15 -21 -38 -47 -50 -59
-13 -12 -23 -24 -23 -28 0 -3 -8 -14 -17 -24 -25 -26 -54 -61 -88 -107 -16
-22 -32 -42 -36 -45 -3 -3 -35 -48 -72 -100 -76 -107 -72 -87 -57 -310 39
-577 121 -956 353 -1645 27 -82 53 -154 57 -160 4 -5 17 -39 30 -75 13 -36 42
-105 65 -155 23 -49 55 -119 71 -155 15 -36 31 -67 34 -70 3 -3 21 -36 41 -75
58 -110 83 -155 129 -230 24 -39 57 -95 75 -125 77 -133 97 -158 140 -165 21
-3 42 -9 45 -13 5 -7 70 -26 182 -55 25 -7 50 -15 54 -19 4 -4 29 -11 55 -14
27 -4 47 -10 44 -14 -3 -4 22 -10 55 -14 33 -4 62 -11 65 -15 2 -5 34 -12 70
-16 36 -3 67 -10 70 -15 2 -4 39 -11 82 -15 42 -4 84 -11 92 -16 19 -10 181
-26 421 -40 216 -13 968 -6 996 9 10 6 60 15 109 21 112 13 237 34 250 42 6 4
38 10 73 14 34 4 62 11 62 15 0 5 27 12 60 16 33 4 60 10 60 15 0 4 21 11 46
15 26 4 59 13 73 20 14 8 38 14 54 14 15 0 27 4 27 9 0 5 29 14 65 21 36 7 68
16 71 21 3 5 13 9 23 9 19 0 56 38 73 76 6 13 15 24 20 24 4 0 8 7 8 15 0 8 3
15 8 15 4 0 20 21 36 48 16 26 54 88 86 137 93 148 160 262 160 274 0 6 5 11
12 11 6 0 9 3 5 6 -3 4 5 23 18 43 14 19 25 39 25 43 0 3 23 55 51 115 61 129
101 223 135 318 14 39 31 84 39 100 15 34 146 441 169 525 9 30 25 89 36 130
12 41 25 93 29 115 5 22 16 74 25 115 51 244 83 519 92 800 6 195 6 195 -17
220 -13 14 -37 43 -54 65 -16 22 -34 45 -40 51 -5 7 -23 29 -40 49 -16 21 -57
70 -90 109 -33 39 -69 82 -80 95 -56 67 -252 255 -339 326 -28 22 -62 51 -77
65 -27 25 -49 42 -89 70 -12 8 -53 39 -90 68 -38 28 -71 52 -75 52 -3 0 -12 6
-19 13 -8 6 -24 19 -36 27 -12 8 -30 22 -40 30 -10 8 -28 22 -40 30 -12 8 -45
32 -73 53 -28 20 -56 37 -63 37 -6 0 -14 7 -18 15 -3 8 -12 15 -21 15 -8 0
-15 5 -15 10 0 6 -10 15 -22 20 -31 13 -57 31 -87 58 -14 12 -29 22 -32 22 -3
0 -16 9 -29 20 -13 11 -29 20 -37 20 -7 0 -13 4 -13 9 0 5 -10 13 -22 17 -12
3 -28 12 -35 18 -32 28 -43 36 -74 50 -36 17 -71 37 -79 47 -5 6 -17 13 -107
59 -26 14 -50 28 -53 31 -3 3 -27 16 -55 30 -27 13 -52 27 -55 30 -3 4 -16 10
-30 14 -13 4 -30 14 -38 21 -7 8 -22 14 -33 14 -10 0 -19 4 -19 9 0 5 -20 15
-45 22 -25 7 -45 17 -45 21 0 4 -16 10 -35 14 -19 3 -33 10 -30 14 3 5 -13 11
-35 15 -22 4 -40 11 -40 15 0 5 -17 12 -37 16 -21 4 -40 10 -43 13 -3 4 -31
17 -63 29 -56 21 -86 24 -134 15z m97 -44 c0 -5 8 -9 18 -9 9 0 29 -6 44 -14
15 -8 40 -17 57 -21 17 -4 31 -10 31 -15 0 -4 16 -11 35 -14 19 -4 35 -11 35
-16 0 -6 8 -10 19 -10 10 0 39 -11 65 -25 26 -14 54 -25 62 -25 7 0 14 -4 14
-10 0 -5 7 -10 15 -10 8 0 32 -9 52 -20 21 -11 44 -20 51 -20 7 0 10 -4 7 -10
-3 -5 3 -10 14 -10 11 0 26 -7 34 -15 8 -7 26 -17 41 -21 14 -3 26 -10 26 -14
0 -4 11 -11 25 -14 14 -4 25 -11 25 -16 0 -6 5 -10 11 -10 14 0 253 -141 257
-152 2 -4 8 -8 13 -8 8 0 68 -39 169 -110 19 -14 37 -28 38 -32 2 -5 10 -8 18
-8 8 0 22 -9 31 -20 10 -11 21 -20 26 -20 7 0 76 -48 113 -79 6 -5 20 -12 32
-15 12 -4 20 -12 17 -17 -4 -5 0 -9 8 -9 8 0 24 -9 37 -20 13 -11 27 -20 32
-20 5 0 6 -4 3 -10 -3 -5 0 -10 8 -10 12 0 26 -9 74 -50 7 -5 17 -10 23 -10 6
0 13 -7 16 -15 3 -8 14 -17 25 -20 10 -4 25 -12 31 -18 7 -7 42 -35 78 -62 68
-52 71 -55 133 -111 21 -19 43 -34 48 -34 6 0 7 -4 4 -10 -3 -5 0 -10 7 -10 7
0 51 -39 97 -85 46 -47 88 -85 94 -85 6 0 8 -2 5 -5 -3 -3 16 -27 41 -54 25
-27 55 -59 66 -72 11 -13 48 -58 83 -99 71 -84 75 -89 117 -144 17 -22 43 -54
59 -70 l28 -31 -6 -199 c-13 -402 -60 -711 -170 -1101 -59 -210 -166 -542
-201 -620 -7 -16 -16 -41 -20 -55 -4 -14 -15 -43 -25 -65 -10 -22 -37 -85 -61
-140 -48 -110 -157 -327 -196 -390 -50 -81 -93 -158 -93 -166 0 -5 -4 -9 -10
-9 -5 0 -10 -5 -10 -10 0 -12 -189 -292 -204 -302 -6 -4 -21 -8 -33 -8 -13 0
-23 -4 -23 -9 0 -5 -22 -12 -50 -16 -27 -4 -50 -11 -50 -16 0 -5 -8 -9 -17 -9
-29 0 -123 -24 -123 -31 0 -4 -22 -10 -50 -14 -27 -4 -52 -11 -55 -15 -3 -5
-30 -12 -60 -15 -30 -4 -55 -11 -55 -15 0 -4 -31 -11 -70 -14 -38 -4 -70 -11
-70 -15 0 -5 -37 -11 -82 -15 -45 -4 -87 -11 -93 -16 -6 -5 -62 -12 -125 -16
-63 -3 -124 -11 -135 -17 -25 -13 -887 -12 -912 1 -10 5 -83 13 -163 17 -80 4
-150 11 -156 16 -5 4 -48 11 -95 15 -46 4 -88 10 -94 14 -5 5 -43 12 -82 15
-40 4 -70 11 -68 15 3 5 -22 11 -55 15 -33 4 -60 11 -60 15 0 4 -27 11 -60 15
-33 4 -58 10 -55 15 2 4 -29 13 -70 21 -41 7 -75 16 -75 20 0 4 -20 11 -45 15
-25 3 -45 10 -45 14 0 5 -19 11 -42 15 -38 7 -68 24 -68 40 0 3 -22 39 -50 80
-27 41 -50 76 -50 79 0 5 -62 108 -70 116 -3 3 -13 21 -24 40 -10 19 -32 60
-49 90 -47 86 -97 188 -97 200 0 5 -4 10 -10 10 -5 0 -9 3 -8 8 1 4 -12 36
-29 72 -81 169 -172 408 -248 655 -21 66 -45 145 -55 175 -43 130 -113 403
-139 541 -54 280 -72 426 -92 737 -10 166 -10 195 2 203 8 5 11 9 6 9 -4 0 5
13 19 30 15 16 41 49 58 73 38 55 118 160 125 167 3 3 24 27 46 54 21 27 48
60 60 72 11 12 39 44 62 72 53 61 147 156 248 247 42 39 89 81 104 95 15 14
42 36 60 50 18 14 46 35 61 48 15 12 33 22 40 22 6 0 8 5 5 10 -3 6 -2 10 2
10 11 0 49 29 71 53 9 9 20 17 25 17 9 0 30 17 55 43 9 9 22 17 29 17 7 0 13
5 13 10 0 6 8 14 18 17 9 4 22 11 27 15 6 5 21 17 34 28 13 11 32 22 42 25 11
4 17 11 14 16 -4 5 1 9 9 9 8 0 21 6 28 13 25 22 77 57 87 57 5 0 11 3 13 8 5
11 66 52 78 52 5 0 10 4 10 8 0 5 10 14 23 21 12 6 45 25 72 41 28 17 66 38
85 48 19 9 37 20 38 25 2 4 9 7 16 7 7 0 23 9 36 20 13 11 29 20 37 20 8 0 21
7 29 15 9 8 24 15 35 15 10 0 19 4 19 8 0 8 92 52 110 52 6 0 10 4 10 9 0 5
15 13 33 16 17 4 41 14 52 21 11 8 27 14 37 14 10 0 18 4 18 9 0 5 17 12 37
16 21 4 40 11 43 15 3 5 28 15 55 22 28 7 52 16 55 19 3 4 21 10 40 14 19 4
40 11 45 15 6 4 25 11 43 15 18 4 45 13 60 21 15 8 39 14 55 14 15 0 27 4 27
9 0 5 8 11 18 13 24 5 62 -3 62 -13z"/>
<path d="M4396 5101 c-88 -6 -89 -6 -71 -25 17 -16 21 -42 28 -188 7 -145 6
-173 -7 -192 -8 -13 -13 -25 -11 -27 2 -2 42 -3 89 -1 88 4 105 14 71 42 -11
9 -15 33 -15 87 0 89 10 91 58 12 38 -63 50 -101 34 -107 -7 -2 -12 -8 -12
-13 0 -5 43 -9 95 -9 78 0 95 3 95 15 0 8 -4 15 -9 15 -5 0 -30 43 -56 95 -27
52 -51 95 -55 95 -22 0 -16 33 11 60 41 40 49 96 19 128 -23 24 -57 26 -264
13z m153 -73 c11 -31 2 -66 -20 -73 -10 -4 -19 -11 -19 -16 0 -5 -9 -9 -20 -9
-18 0 -20 7 -20 60 l0 60 35 0 c27 0 38 -5 44 -22z"/>
<path d="M3960 5030 c0 -5 -18 -13 -40 -16 -22 -4 -40 -10 -40 -14 0 -4 -18
-10 -40 -14 -22 -3 -40 -10 -40 -16 0 -5 -20 -12 -45 -16 -25 -3 -45 -10 -45
-15 0 -5 -8 -9 -17 -10 -11 0 -13 -3 -5 -6 6 -2 10 -9 6 -14 -3 -5 2 -9 10 -9
21 0 35 -31 92 -198 30 -87 45 -146 39 -150 -10 -7 -19 -32 -11 -32 2 0 17 7
32 15 16 8 36 15 45 15 9 0 19 3 23 7 10 10 78 33 99 33 10 0 16 4 12 10 -3 5
16 12 45 16 l50 7 0 76 c0 93 -13 120 -28 61 -21 -85 -74 -131 -137 -118 -23
4 -77 152 -61 168 17 17 75 12 98 -10 35 -32 34 -15 -3 56 -34 64 -52 78 -54
42 -2 -25 -9 -30 -47 -31 -31 -2 -33 0 -36 35 -3 29 1 39 19 48 35 19 106 7
134 -24 48 -52 45 -26 -8 62 -29 49 -47 65 -47 42z"/>
<path d="M5070 5031 c0 -5 -10 -11 -23 -15 -26 -6 -67 -72 -67 -107 0 -32 33
-84 67 -106 15 -10 33 -22 39 -28 7 -5 24 -19 38 -29 29 -21 28 -48 -5 -78
-53 -51 -159 30 -159 122 0 40 -18 38 -25 -2 -3 -18 -10 -55 -15 -83 -5 -30
-5 -54 1 -59 5 -6 9 -7 9 -3 0 4 23 -2 50 -13 28 -11 61 -20 73 -20 18 0 19
-2 7 -10 -10 -7 5 -10 53 -10 43 0 66 4 62 10 -3 6 3 10 15 10 11 0 36 16 55
36 29 30 35 43 35 79 0 53 -16 93 -42 100 -10 4 -18 10 -18 15 0 5 -9 12 -21
15 -19 6 -89 67 -89 78 0 2 8 14 19 25 18 22 61 31 61 13 0 -5 8 -11 19 -14
10 -2 27 -23 37 -45 23 -50 31 -52 38 -12 3 17 9 44 12 60 5 26 3 30 -15 30
-12 0 -21 4 -21 10 0 5 -16 12 -35 16 -19 3 -38 10 -41 15 -7 12 -114 12 -114
0z"/>
<path d="M5603 4833 c4 -20 -10 -53 -55 -132 -34 -58 -66 -115 -72 -126 -30
-52 -42 -65 -63 -65 -13 0 -23 -3 -23 -8 0 -9 37 -42 47 -42 3 0 28 -13 55
-30 58 -36 62 -36 55 -9 -6 22 6 49 63 144 16 28 44 76 62 108 18 34 43 64 60
73 25 13 27 17 14 29 -8 8 -19 15 -24 15 -5 0 -19 9 -32 20 -13 11 -29 20 -35
20 -7 0 -18 7 -25 15 -19 23 -33 18 -27 -12z"/>
<path d="M3367 4775 c-43 -30 -45 -37 -16 -50 16 -7 32 -40 60 -125 21 -62 37
-115 35 -117 -2 -2 -46 29 -99 69 -80 61 -96 77 -92 95 7 29 -8 36 -33 15 -11
-9 -30 -24 -42 -32 -12 -8 -28 -20 -34 -26 -6 -6 -22 -16 -34 -23 -27 -15 -20
-31 14 -31 21 0 53 -19 129 -77 6 -5 27 -19 47 -33 21 -14 38 -28 38 -32 0 -5
6 -8 13 -8 19 -1 88 -67 85 -82 -7 -30 33 -11 101 49 23 21 31 33 20 33 -9 0
-21 12 -28 28 -26 57 -111 322 -111 346 0 32 -6 32 -53 1z"/>
<path d="M5958 4607 c-7 -6 -30 -23 -50 -37 -46 -30 -49 -43 -8 -28 38 13 100
2 100 -17 0 -8 -10 -25 -23 -38 -12 -14 -48 -54 -79 -88 -99 -113 -104 -117
-139 -121 l-33 -3 35 -32 c19 -17 51 -47 73 -67 42 -39 56 -40 49 -4 -3 17 9
37 44 75 26 28 75 81 108 117 33 36 65 66 71 66 16 0 33 -71 23 -98 -12 -31 6
-36 25 -8 45 70 56 95 42 103 -16 10 -173 151 -195 176 -18 20 -25 21 -43 4z"/>
<path d="M4410 4573 c-36 -2 -74 -7 -85 -12 -11 -5 -51 -12 -90 -16 -38 -3
-72 -10 -75 -14 -3 -5 -25 -12 -50 -16 -25 -4 -49 -11 -55 -15 -5 -4 -26 -11
-45 -15 -19 -4 -41 -11 -50 -15 -8 -4 -31 -14 -50 -22 -68 -29 -195 -93 -208
-105 -7 -7 -20 -13 -28 -13 -8 0 -14 -4 -14 -10 0 -5 -5 -10 -10 -10 -11 0
-89 -53 -160 -109 -76 -60 -223 -212 -292 -302 -215 -283 -328 -595 -345 -954
-14 -292 46 -574 176 -835 49 -98 155 -265 213 -334 67 -80 207 -214 268 -256
12 -8 30 -22 40 -30 10 -8 28 -22 40 -30 12 -8 28 -20 34 -25 6 -6 26 -17 44
-24 17 -7 32 -16 32 -20 0 -3 25 -17 55 -30 30 -14 55 -28 55 -33 0 -4 8 -8
18 -8 10 0 26 -6 37 -14 11 -7 35 -17 53 -21 17 -3 32 -10 32 -15 0 -4 18 -10
40 -14 22 -3 40 -10 40 -15 0 -4 21 -11 46 -15 26 -3 52 -10 59 -16 6 -5 38
-12 71 -16 32 -4 62 -12 66 -18 10 -16 546 -15 556 0 4 7 34 15 67 19 33 3 69
10 80 15 11 5 36 13 55 19 42 11 93 29 137 48 17 7 38 13 47 13 9 0 16 5 16
10 0 6 6 10 13 10 16 0 143 66 175 90 14 11 29 20 34 20 5 0 14 5 21 10 28 24
106 80 111 80 15 0 267 246 297 290 13 19 33 45 44 58 33 38 123 189 164 276
82 174 129 337 156 539 10 78 7 340 -5 429 -19 130 -62 300 -100 383 -9 22
-20 50 -24 62 -16 51 -137 267 -173 308 -5 6 -31 39 -58 75 -52 68 -205 224
-270 275 -63 50 -145 105 -155 105 -6 0 -10 3 -10 8 0 4 -10 12 -23 18 -12 6
-72 37 -134 68 -61 31 -118 56 -127 56 -8 0 -17 4 -20 9 -4 5 -24 12 -46 16
-22 4 -42 11 -45 15 -3 5 -30 12 -60 15 -30 4 -53 11 -50 15 5 7 -75 20 -132
20 -17 0 -33 4 -35 9 -3 10 -256 19 -368 14z m252 -339 c21 -4 35 -10 32 -15
-3 -5 6 -9 20 -9 15 0 43 -9 63 -20 21 -11 43 -20 50 -20 7 0 13 -4 13 -10 0
-5 6 -10 13 -10 11 0 97 -40 107 -50 3 -3 28 -16 55 -30 28 -14 52 -28 55 -31
3 -4 16 -10 30 -14 14 -4 27 -11 30 -14 15 -19 131 -54 191 -59 38 -2 69 -8
69 -12 0 -5 77 -11 170 -15 134 -6 170 -10 170 -21 0 -8 -9 -14 -20 -14 -11 0
-20 -4 -20 -9 0 -5 -29 -12 -65 -16 -36 -3 -65 -10 -65 -15 0 -4 -38 -11 -85
-15 -52 -5 -85 -12 -85 -19 0 -6 -5 -4 -10 4 -6 10 -10 11 -10 3 0 -9 -16 -13
-46 -13 -25 0 -43 4 -40 9 3 4 -19 11 -48 15 -30 3 -69 14 -88 23 -18 9 -45
22 -60 30 -14 7 -33 13 -42 13 -9 0 -16 4 -16 9 0 5 -16 12 -35 15 -19 4 -35
11 -35 16 0 6 -18 13 -40 16 -22 4 -40 10 -40 14 0 10 -128 30 -187 29 -60 0
-166 -22 -157 -32 4 -4 0 -7 -8 -7 -9 0 -21 -13 -28 -30 -27 -65 17 -143 88
-156 18 -4 30 -9 27 -13 -4 -3 24 -12 62 -20 96 -20 613 -27 625 -9 4 7 8 8 8
3 0 -6 17 -12 38 -13 42 -3 102 -22 102 -34 0 -4 16 -10 35 -14 19 -3 33 -10
30 -14 -3 -4 15 -11 40 -14 24 -4 47 -11 50 -16 3 -4 39 -11 80 -15 41 -4 72
-11 69 -16 -3 -5 22 -9 55 -9 44 0 61 -4 61 -13 0 -11 -38 -15 -169 -21 -173
-6 -341 1 -341 15 0 4 -18 10 -40 14 -22 4 -40 10 -40 15 0 10 -82 22 -102 15
-19 -8 -38 -48 -38 -81 0 -14 11 -36 25 -49 23 -24 29 -25 154 -25 71 0 131
-4 133 -9 2 -5 52 -14 112 -20 60 -6 114 -15 120 -20 6 -4 29 -12 51 -16 22
-4 45 -10 50 -15 6 -4 35 -18 65 -31 30 -13 57 -25 60 -29 3 -3 18 -10 34 -15
16 -6 31 -16 34 -22 5 -16 -152 -17 -218 -2 -25 6 -102 14 -172 18 -70 4 -133
13 -140 19 -20 16 -84 18 -102 3 -32 -27 -9 -111 31 -111 7 0 13 -4 13 -10 0
-6 50 -10 128 -11 128 -1 263 -10 382 -27 48 -7 77 -18 112 -42 49 -35 55 -55
12 -44 -13 3 -30 2 -37 -3 -6 -5 -34 -10 -62 -11 -99 -1 -215 -14 -215 -23 0
-5 -71 -9 -160 -9 -88 0 -160 4 -160 9 0 5 -16 12 -35 15 -19 4 -35 11 -35 16
0 5 -12 13 -27 16 -15 4 -38 13 -52 20 -14 8 -34 14 -43 14 -22 0 -122 54
-213 114 -38 25 -72 46 -76 46 -4 0 -34 17 -66 38 -75 50 -139 82 -161 82 -10
0 -23 5 -29 11 -7 7 -61 14 -130 17 -118 4 -118 4 -143 -23 -35 -38 -33 -99 5
-152 31 -42 56 -57 117 -67 37 -7 128 -43 138 -55 3 -4 16 -11 30 -17 28 -13
58 -37 132 -106 59 -55 87 -60 118 -21 17 21 20 37 16 63 -6 43 -58 90 -98 90
-32 0 -34 5 -11 28 26 26 157 29 203 4 43 -23 70 -73 70 -130 0 -45 -32 -119
-55 -128 -7 -3 -16 -12 -19 -19 -3 -10 4 -13 24 -13 16 1 27 4 25 9 -6 8 223
24 232 16 14 -14 -199 -240 -238 -252 -11 -4 -17 -11 -14 -16 4 -5 1 -9 -5 -9
-7 0 -22 -8 -35 -17 -12 -10 -33 -25 -45 -33 -28 -19 -119 -85 -145 -105 -10
-8 -25 -15 -32 -15 -7 0 -13 -4 -13 -10 0 -5 -11 -12 -25 -16 -14 -3 -25 -10
-25 -14 0 -5 -9 -12 -20 -15 -11 -4 -18 -10 -15 -15 3 -4 -5 -10 -16 -13 -12
-3 -18 -10 -14 -16 3 -6 0 -11 -8 -11 -8 0 -17 -7 -21 -15 -3 -8 -1 -15 4 -15
16 0 11 -93 -6 -118 -13 -18 -13 -28 -3 -55 10 -28 9 -39 -5 -69 -10 -20 -24
-39 -32 -42 -8 -3 -14 -4 -14 -3 0 1 6 20 14 41 10 28 11 49 4 73 -7 26 -6 37
6 49 18 17 23 124 6 124 -33 0 27 65 120 130 19 14 40 30 46 35 25 21 69 49
124 77 14 7 36 23 50 35 14 13 28 23 31 23 4 0 24 17 46 38 58 54 133 120 141
124 4 2 27 25 52 52 l45 48 -80 -7 c-44 -4 -82 -10 -85 -15 -3 -4 -44 -10 -92
-13 -48 -4 -99 -13 -115 -19 -27 -12 -26 -13 26 -16 30 -2 66 1 80 7 14 5 62
13 106 17 72 6 79 5 67 -9 -8 -9 -35 -19 -60 -22 -26 -4 -54 -9 -62 -13 -26
-10 -190 -32 -325 -43 -158 -13 -681 -5 -699 10 -7 6 -52 14 -99 17 -48 4 -87
11 -87 15 0 5 -11 9 -24 9 -22 0 -59 29 -40 31 31 3 111 -4 119 -11 6 -4 56
-10 112 -13 88 -4 101 -3 89 9 -10 9 -58 18 -143 25 -70 6 -136 15 -145 20
-10 5 -34 9 -53 9 -43 0 -46 -20 -10 -56 14 -14 25 -29 25 -34 0 -6 9 -10 21
-10 11 0 17 -4 14 -10 -3 -5 0 -10 7 -10 8 0 21 -8 30 -17 26 -28 46 -43 58
-43 5 0 10 -5 10 -10 0 -6 11 -15 25 -20 14 -5 25 -14 25 -19 0 -5 10 -13 22
-17 20 -6 31 -13 63 -41 7 -7 17 -13 21 -13 4 0 45 -26 93 -57 91 -62 94 -64
128 -91 11 -9 31 -24 43 -32 66 -45 70 -52 57 -98 -8 -32 -8 -50 0 -73 9 -24
9 -42 0 -76 -10 -38 -9 -48 7 -78 11 -19 23 -35 27 -35 4 0 2 -13 -4 -30 -8
-22 -8 -53 0 -119 9 -73 9 -102 -3 -158 -8 -37 -14 -95 -14 -128 0 -33 -2 -79
-6 -103 -12 -80 52 -136 133 -117 41 9 64 47 64 103 0 64 -15 195 -31 264 -11
49 -10 68 4 130 8 40 17 82 20 93 7 38 5 -70 -3 -119 -5 -32 -4 -73 5 -120 8
-39 14 -85 14 -102 0 -18 7 -45 15 -60 32 -63 6 -173 -45 -189 -11 -4 -20 -11
-20 -16 0 -5 -25 -9 -56 -9 -50 0 -58 3 -82 32 -35 41 -52 90 -45 131 3 17 9
68 14 112 4 44 11 108 15 142 3 34 1 90 -5 126 -8 47 -8 72 0 96 9 25 8 38 -6
68 -12 26 -16 50 -12 83 4 33 1 54 -8 66 -16 21 -19 72 -6 93 7 11 -1 24 -27
47 -21 19 -41 34 -45 34 -5 0 -15 7 -23 15 -9 8 -25 15 -36 15 -12 0 -19 3
-15 6 3 4 -17 18 -46 33 -49 25 -61 32 -90 56 -7 6 -33 24 -59 41 -26 17 -45
34 -41 38 3 3 0 6 -9 6 -8 0 -29 15 -45 33 -17 17 -41 40 -53 49 -40 30 -120
102 -182 163 l-60 60 102 3 c62 2 107 -1 114 -8 11 -11 146 -14 146 -2 0 11
-101 82 -116 82 -8 0 -14 4 -14 10 0 5 -16 12 -35 16 -19 3 -35 10 -35 14 0 5
-22 11 -50 15 -27 4 -50 11 -50 15 0 5 -18 11 -40 15 -22 4 -40 11 -40 16 0 5
-9 9 -19 9 -11 0 -26 6 -33 13 -7 6 -30 20 -49 30 -79 41 -150 131 -174 223
-25 97 -21 120 54 274 47 97 48 110 22 203 -16 56 -17 67 -5 67 8 0 14 -4 14
-10 0 -5 11 -10 24 -10 14 0 31 -6 38 -14 8 -7 24 -17 36 -20 27 -9 66 -66 82
-121 11 -37 8 -51 -29 -163 -32 -97 -41 -137 -41 -193 0 -103 40 -171 107
-185 59 -12 81 50 103 291 13 138 22 174 56 215 20 23 36 30 79 35 30 4 55 11
55 15 0 4 16 11 36 15 48 8 57 19 98 107 19 40 44 85 57 99 130 146 169 185
203 208 23 14 47 32 54 38 7 7 22 13 33 13 10 0 19 4 19 9 0 5 8 12 18 14 27
7 173 8 214 1z m438 -1471 c-1 -5 -12 -17 -26 -28 -14 -11 -34 -28 -46 -37
-12 -10 -25 -18 -30 -18 -5 0 -6 -4 -3 -10 3 -5 2 -10 -3 -10 -5 0 -20 -9 -33
-20 -13 -11 -29 -23 -34 -28 -6 -5 -33 -21 -60 -37 -28 -16 -56 -35 -63 -42
-7 -7 -18 -13 -23 -13 -5 0 -15 -5 -22 -10 -46 -39 -61 -50 -69 -50 -5 0 -6
-4 -3 -10 3 -5 0 -10 -7 -10 -7 0 -31 -16 -52 -36 -28 -25 -46 -34 -60 -30
-12 3 -29 6 -39 6 -10 0 -15 5 -12 10 3 6 -3 10 -15 10 -12 0 -18 -4 -15 -10
3 -6 -4 -10 -17 -10 -13 0 -32 -3 -44 -6 -12 -3 -27 0 -35 8 -8 7 -41 31 -74
53 -33 22 -64 44 -70 48 -42 34 -167 117 -175 117 -6 0 -10 5 -10 10 0 6 -6
10 -14 10 -8 0 -21 6 -28 13 -7 6 -29 23 -48 37 -37 26 -41 29 -80 61 l-25 21
80 -7 c44 -4 86 -12 94 -18 20 -17 770 -16 803 0 13 7 62 15 110 18 49 4 90
11 94 16 6 11 54 12 54 2z m-580 -403 c-12 -8 -10 -10 10 -10 33 0 58 -30 66
-79 5 -33 2 -42 -22 -65 -16 -14 -34 -26 -41 -26 -7 0 -13 -4 -13 -9 0 -25
-34 -17 -70 17 -30 28 -40 45 -40 69 0 47 18 78 53 95 37 18 82 24 57 8z m-58
-233 c20 -41 47 -44 60 -6 5 15 16 30 24 33 18 7 37 -29 28 -57 -13 -43 -34
-57 -87 -57 -28 0 -47 3 -44 7 4 3 -2 12 -13 20 -13 9 -20 26 -20 47 0 57 28
64 52 13z m85 -170 c3 -4 1 -30 -5 -58 -15 -61 -15 -139 -1 -198 12 -53 0 -71
-48 -71 -54 0 -67 20 -53 81 9 35 10 85 6 154 l-7 103 50 -2 c28 -2 54 -6 58
-9z m-97 -347 c0 -14 74 -12 89 3 10 10 12 6 9 -18 -3 -34 -25 -41 -84 -30
-28 5 -34 10 -34 30 0 14 5 25 10 25 6 0 10 -4 10 -10z m117 -131 c-7 -58 -26
-78 -73 -79 -44 0 -74 32 -74 79 0 21 3 41 7 44 3 4 38 7 76 7 l70 0 -6 -51z"/>
<path d="M4568 3633 c-39 -43 -15 -91 55 -108 15 -4 27 -11 27 -16 0 -4 27
-11 61 -15 33 -4 55 -10 49 -14 -7 -4 12 -10 40 -12 29 -3 55 -10 59 -15 3 -5
20 -13 38 -16 18 -4 56 -22 85 -41 29 -19 66 -38 82 -42 l30 -7 -39 46 c-22
26 -45 47 -52 47 -7 0 -13 4 -13 10 0 5 -11 12 -25 16 -14 3 -25 10 -25 14 0
5 -13 11 -30 15 -16 4 -32 11 -35 16 -4 5 -21 9 -40 9 -31 0 -54 14 -42 27 3
2 25 7 49 10 24 3 48 9 53 14 6 4 30 11 53 15 23 4 42 10 42 15 0 4 8 10 18
12 9 3 -40 5 -110 6 -83 1 -128 5 -130 12 -2 7 -41 13 -93 16 -80 5 -92 3
-107 -14z"/>
<path d="M4175 3610 c-10 -11 -24 -20 -31 -20 -7 0 -19 -6 -26 -14 -8 -7 -25
-17 -38 -21 -44 -14 -106 -77 -121 -124 -17 -50 -4 -130 31 -192 17 -30 44
-83 61 -119 32 -67 83 -130 106 -130 23 0 44 60 54 155 10 90 10 94 -14 131
-14 22 -37 51 -50 65 -57 60 -54 145 7 214 19 21 37 47 39 57 6 23 4 23 -18
-2z"/>
<path d="M5368 3593 c7 -3 16 -2 19 1 4 3 -2 6 -13 5 -11 0 -14 -3 -6 -6z"/>
<path d="M5027 3577 c-3 -8 1 -14 8 -14 7 0 11 6 8 14 -3 7 -6 13 -8 13 -2 0
-5 -6 -8 -13z"/>
<path d="M3955 3569 c-4 -6 -5 -12 -2 -15 2 -3 7 2 10 11 7 17 1 20 -8 4z"/>
<path d="M5075 3551 c-3 -5 -2 -12 3 -15 5 -3 9 1 9 9 0 17 -3 19 -12 6z"/>
<path d="M3433 3544 c3 -6 2 -15 -2 -22 -10 -17 -51 -24 -51 -9 -1 23 -30 -68
-30 -95 0 -44 35 -143 66 -184 37 -49 62 -74 73 -74 5 0 23 -12 40 -26 17 -14
31 -23 31 -19 0 4 10 1 23 -7 12 -9 54 -26 92 -38 39 -13 75 -26 80 -30 6 -4
28 -10 49 -13 22 -4 42 -10 45 -14 3 -4 23 -17 44 -27 21 -11 47 -27 57 -35
10 -9 28 -23 40 -31 12 -8 36 -27 54 -42 17 -15 43 -33 59 -39 15 -6 27 -15
27 -20 0 -14 19 -10 39 9 49 43 121 82 154 82 13 0 29 6 35 13 9 8 55 12 155
12 144 0 177 -7 224 -49 44 -39 50 -41 116 -41 39 0 71 5 75 11 4 6 17 15 30
19 34 10 90 68 108 111 11 26 14 51 9 83 -8 54 -26 77 -66 86 -16 4 -31 11
-34 16 -7 10 -65 12 -88 3 -11 -4 -4 -16 29 -49 37 -38 44 -51 44 -84 0 -52
-39 -101 -82 -101 -16 0 -35 6 -42 13 -12 12 -68 60 -130 111 -48 40 -165 96
-201 96 -19 0 -36 4 -39 9 -3 5 -18 12 -33 16 -33 8 -66 45 -88 99 -9 23 -23
54 -31 70 -13 26 -13 28 1 16 13 -11 15 -9 15 9 0 11 5 21 10 21 6 0 10 6 10
14 0 8 9 17 20 21 11 3 19 11 17 18 -1 6 4 12 11 13 6 1 15 2 20 4 7 2 55 0
115 -4 33 -3 42 7 28 31 -10 17 -10 17 -11 1 0 -26 -28 -22 -33 5 -4 21 -4 21
-6 1 -1 -18 -7 -21 -41 -20 -22 0 -40 4 -40 8 0 5 -3 7 -8 5 -4 -1 -8 1 -10 6
-1 4 0 6 1 5 7 -5 37 25 37 36 0 6 -5 3 -11 -7 -6 -9 -14 -15 -19 -12 -5 3
-11 1 -15 -5 -4 -6 -12 -7 -18 -4 -7 4 -9 4 -5 -1 4 -4 2 -15 -5 -23 -10 -13
-9 -14 2 -7 10 5 12 4 7 -4 -4 -6 -12 -8 -18 -5 -8 5 -9 1 -4 -12 6 -15 5 -17
-6 -6 -10 10 -10 16 1 33 9 16 10 24 1 33 -8 8 -9 6 -4 -9 7 -18 6 -19 -12 -5
-13 10 -15 10 -7 0 17 -18 -1 -50 -26 -45 -11 2 -25 -3 -32 -11 -10 -13 -15
-12 -36 8 -14 13 -28 22 -31 20 -4 -2 -8 2 -10 10 -2 9 0 8 7 -2 8 -12 10 -8
8 14 -1 16 -9 31 -17 33 -13 4 -13 3 0 -6 11 -8 12 -13 4 -18 -7 -5 -14 -17
-17 -28 -3 -15 -5 -12 -6 9 -1 40 -13 25 -15 -19 0 -20 -7 -40 -15 -44 -20
-13 -6 -45 45 -102 24 -27 44 -55 45 -62 0 -7 2 -21 4 -32 7 -33 -24 -203 -43
-238 -14 -27 -21 -31 -45 -27 -41 7 -85 55 -122 131 -18 37 -42 81 -53 96 -38
55 -65 153 -58 216 6 57 -8 82 -17 30 -3 -17 -5 -11 -4 13 2 26 -2 41 -10 41
-7 0 -10 -3 -8 -7 2 -4 -3 -16 -11 -26 -9 -10 -12 -13 -8 -5 5 11 3 13 -9 8
-9 -3 -19 -2 -23 4 -4 6 -14 3 -27 -8 -11 -10 -18 -13 -14 -8 3 6 2 17 -4 25
-7 12 -9 12 -9 -3 0 -12 -4 -16 -12 -11 -8 5 -7 0 2 -11 9 -11 10 -16 3 -11
-10 5 -13 -3 -14 -31 0 -55 -23 -174 -38 -203 -35 -65 -79 -78 -136 -39 -66
46 -94 160 -73 304 7 46 6 48 -6 25 -8 -13 -12 -32 -11 -42 2 -10 0 -20 -4
-23 -5 -2 -8 5 -7 18 1 17 -5 22 -24 23 -14 0 -30 -3 -37 -8 -13 -10 -27 7
-18 22 9 15 27 12 19 -2 -5 -10 -4 -10 6 -1 7 6 20 9 29 6 12 -4 13 -3 3 5
-11 7 -11 10 2 15 12 5 16 0 17 -16 0 -12 3 -16 6 -9 3 7 2 19 -1 28 -5 12
-10 13 -27 3 -19 -10 -21 -9 -16 5 3 8 1 18 -5 22 -6 4 -8 3 -5 -2z m-38 -67
c0 -13 -5 -24 -12 -24 -7 0 -11 3 -9 6 2 3 6 14 9 24 9 23 12 22 12 -6z m1013
-2 c-3 -3 -9 2 -12 12 -6 14 -5 15 5 6 7 -7 10 -15 7 -18z"/>
<path d="M4247 3544 c-3 -3 -2 -17 3 -30 6 -14 6 -26 0 -29 -6 -4 -11 4 -11
17 -1 18 -2 19 -6 5 -7 -26 26 -60 44 -46 9 8 10 15 3 24 -6 7 -6 15 1 22 8 8
7 13 -2 18 -7 5 -10 4 -5 -3 3 -6 2 -13 -4 -17 -9 -5 -15 15 -11 38 1 9 -4 9
-12 1z m28 -64 c3 -5 -1 -10 -10 -10 -9 0 -13 5 -10 10 3 6 8 10 10 10 2 0 7
-4 10 -10z"/>
<path d="M4895 3540 c3 -5 8 -10 11 -10 2 0 4 5 4 10 0 6 -5 10 -11 10 -5 0
-7 -4 -4 -10z"/>
<path d="M5017 3539 c7 -7 15 -10 18 -7 3 3 -2 9 -12 12 -14 6 -15 5 -6 -5z"/>
<path d="M3926 3528 c3 -4 -3 -8 -13 -8 -11 0 -14 -3 -7 -8 6 -4 14 -14 17
-22 4 -10 6 -8 6 8 1 12 6 22 11 22 6 0 10 4 10 8 0 5 -7 9 -15 9 -8 0 -12 -4
-9 -9z"/>
<path d="M4985 3530 c3 -6 2 -10 -4 -10 -6 0 -7 -8 -4 -17 6 -15 7 -15 14 3 6
14 8 15 9 4 2 -8 2 -18 1 -23 -1 -4 10 -11 23 -16 13 -5 26 -17 30 -26 3 -9
11 -13 17 -9 8 4 9 3 5 -4 -6 -11 0 -20 57 -87 40 -48 32 -91 -9 -50 -9 8 -24
15 -35 15 -10 0 -19 4 -19 9 0 5 -16 12 -35 15 -19 4 -35 10 -35 14 0 16 -130
76 -156 71 -4 0 -10 4 -13 9 -3 5 -24 12 -46 14 -22 3 -49 10 -60 15 -11 6
-38 9 -60 6 -21 -2 -36 -1 -32 3 9 10 -30 37 -43 29 -18 -11 -11 -35 10 -35
11 0 20 -5 20 -11 0 -5 4 -8 9 -4 5 3 13 0 16 -6 4 -5 13 -8 21 -5 15 6 148
-58 173 -83 9 -9 34 -25 56 -36 22 -11 42 -22 45 -25 3 -3 21 -13 41 -23 20
-11 50 -31 67 -47 17 -15 42 -30 56 -34 14 -3 26 -11 26 -16 0 -5 17 -12 38
-16 20 -4 64 -20 98 -35 34 -16 65 -29 69 -29 5 0 17 -8 28 -17 17 -16 41 -18
209 -17 122 1 193 5 197 12 3 6 57 14 119 18 61 4 112 10 112 13 0 3 -15 14
-33 24 -41 24 -166 36 -374 37 -92 0 -163 4 -163 9 0 5 -18 12 -40 16 -22 4
-40 11 -40 16 0 5 -6 9 -14 9 -18 0 -26 22 -26 75 0 54 32 80 88 71 50 -7 113
-22 136 -31 12 -6 17 -5 13 2 -4 6 3 8 18 5 14 -2 25 -9 25 -16 0 -6 5 -4 10
4 8 12 10 12 10 1 0 -10 3 -11 13 -2 8 6 17 7 21 3 4 -4 29 -8 54 -8 26 -1 81
-5 122 -8 l75 -6 -70 35 c-38 19 -80 35 -92 35 -13 0 -23 4 -23 9 0 8 -116 25
-172 24 -16 0 -28 4 -28 9 0 4 -13 8 -29 8 -16 0 -41 4 -54 9 -14 5 -88 11
-166 12 -78 2 -137 5 -131 9 6 4 5 13 -3 25 -11 14 -16 15 -22 5 -6 -9 -4 -11
5 -5 9 6 11 4 6 -4 -6 -9 -13 -8 -27 5 -17 15 -23 13 -20 -8 2 -16 -26 4 -35
25 -6 12 -9 16 -7 9 1 -7 -2 -10 -7 -7 -6 3 -10 12 -10 20 0 7 -7 16 -16 19
-8 3 -12 2 -9 -4z m-370 -50 c3 -5 -1 -10 -9 -10 -9 0 -16 5 -16 10 0 6 4 10
9 10 6 0 13 -4 16 -10z"/>
<path d="M5100 3522 c0 -26 -8 -28 -25 -5 -7 9 -17 13 -24 9 -8 -6 -9 -12 -2
-20 6 -7 7 -17 3 -22 -4 -4 0 -3 9 4 11 8 18 9 27 0 8 -8 13 -4 18 16 3 15 4
30 0 33 -3 4 -6 -3 -6 -15z"/>
<path d="M4303 3523 c4 -3 1 -13 -6 -22 -11 -14 -10 -14 5 -2 16 12 16 31 1
31 -4 0 -3 -3 0 -7z"/>
<path d="M3801 3503 c6 -7 7 -18 3 -24 -5 -8 -3 -9 5 -5 7 5 10 15 7 23 -4 9
-1 13 6 11 7 -3 14 -10 14 -16 3 -23 4 -24 19 -12 8 7 13 16 10 20 -3 5 1 10
7 13 7 2 -8 4 -34 3 -36 0 -45 -3 -37 -13z m54 -2 c3 -5 2 -12 -3 -15 -5 -3
-9 1 -9 9 0 17 3 19 12 6z"/>
<path d="M4446 3512 c-3 -4 4 -9 15 -9 23 -2 25 3 4 10 -8 4 -16 3 -19 -1z"/>
<path d="M4311 3487 c-8 -10 -7 -14 2 -14 8 0 14 6 14 14 0 7 -1 13 -2 13 -2
0 -8 -6 -14 -13z"/>
<path d="M4137 3460 c-3 -12 0 -20 8 -20 8 0 11 8 8 20 -3 11 -7 20 -8 20 -1
0 -5 -9 -8 -20z"/>
<path d="M4484 2921 c-3 -3 -39 -8 -82 -12 -42 -5 -78 -13 -80 -18 -2 -6 -12
-11 -22 -11 -10 0 -20 -7 -24 -15 -5 -13 24 -15 219 -15 233 0 249 3 192 40
-22 14 -194 40 -203 31z"/>
<path d="M4187 2816 c-6 -14 8 -16 106 -17 62 0 121 -3 132 -5 24 -6 63 -6 90
0 11 3 94 5 185 6 91 1 158 4 150 7 -8 2 -25 9 -37 15 -15 7 -59 8 -135 3
-121 -8 -298 -8 -414 1 -59 4 -72 3 -77 -10z"/>
<path d="M2885 4363 c-16 -19 -42 -48 -57 -63 -33 -33 -34 -40 -10 -40 21 -1
37 -12 136 -103 119 -108 146 -137 146 -158 0 -36 14 -27 95 66 19 22 35 43
35 48 0 4 -13 7 -29 7 -16 0 -31 6 -35 15 -3 8 -10 15 -15 15 -6 0 -32 21 -58
48 -27 26 -74 70 -106 97 -36 32 -57 58 -57 72 0 34 -12 33 -45 -4z"/>
<path d="M6433 4076 c-4 -7 -31 -16 -60 -19 -28 -3 -60 -10 -70 -16 -10 -5
-44 -13 -75 -16 -32 -4 -60 -11 -63 -16 -4 -5 -38 -9 -76 -9 l-70 0 19 -27
c11 -16 23 -38 26 -50 8 -26 36 -31 36 -7 0 18 58 44 100 44 24 0 33 -6 40
-26 24 -61 -22 -146 -74 -137 -14 3 -26 3 -26 0 0 -9 91 -157 100 -162 5 -3
16 9 24 27 8 18 38 58 67 88 28 30 81 88 117 128 36 39 72 72 80 72 17 0 16 3
-28 79 -35 61 -52 73 -67 47z m-62 -93 c-11 -22 -60 -68 -65 -62 -2 2 -7 18
-10 36 -8 33 -1 38 62 42 19 1 21 -2 13 -16z"/>
<path d="M2606 3998 c-21 -36 -25 -53 -17 -61 8 -8 11 -8 11 1 0 7 13 12 30
12 17 0 30 -4 30 -9 0 -5 11 -12 25 -15 34 -9 31 -22 -6 -30 -48 -9 -99 -7
-99 4 0 31 -26 -2 -71 -91 -44 -90 -48 -101 -30 -96 26 6 91 -10 91 -23 0 -6
9 -10 19 -10 11 0 26 -7 35 -15 8 -8 20 -15 26 -15 14 0 94 -43 98 -52 2 -5
12 -8 21 -8 19 0 65 -43 55 -52 -3 -3 -1 -9 5 -12 6 -4 22 16 36 44 l25 50
-40 0 c-22 0 -40 4 -40 9 0 5 -13 12 -30 16 -16 4 -30 10 -30 15 0 5 -13 11
-30 15 -16 4 -30 10 -30 13 0 8 -48 32 -63 32 -5 0 -15 7 -23 15 -14 13 -13
15 10 15 14 0 26 4 26 9 0 5 34 12 75 16 41 4 75 11 75 16 0 5 31 9 70 9 66 0
70 -1 76 -25 9 -37 21 -31 49 25 29 58 30 60 10 60 -8 0 -15 -4 -15 -10 0 -5
-7 -10 -16 -10 -8 0 -13 4 -10 9 3 5 -8 11 -25 15 -16 3 -37 13 -45 21 -9 8
-24 15 -35 15 -10 0 -19 3 -19 8 0 4 -24 18 -52 32 -29 13 -55 27 -58 30 -3 3
-20 12 -37 19 -20 8 -33 20 -33 32 0 35 -16 27 -44 -23z"/>
<path d="M6580 3523 c-37 -16 -57 -53 -65 -124 -4 -30 -11 -69 -17 -86 -8 -28
-14 -33 -42 -33 -52 0 -81 69 -57 133 11 28 49 71 71 80 8 4 -10 4 -40 1 -30
-4 -56 -10 -58 -15 -2 -5 -15 -9 -29 -9 -21 0 -24 -3 -19 -27 3 -16 8 -53 11
-83 8 -67 37 -136 68 -161 12 -10 27 -23 34 -29 15 -13 133 -13 133 -1 0 5 8
12 19 16 21 6 36 56 47 150 3 33 11 66 16 73 27 32 78 -3 78 -54 0 -28 -31
-91 -54 -107 -6 -5 7 -5 29 -2 22 4 42 10 45 15 3 4 14 10 25 12 13 2 19 11
17 23 -1 11 -5 43 -8 70 -8 58 -23 93 -59 131 -20 22 -36 28 -78 30 -28 2 -59
1 -67 -3z"/>
<path d="M2363 3434 c-5 -10 -10 -39 -12 -64 -1 -40 0 -43 12 -27 10 12 28 17
61 17 25 0 46 -4 46 -9 0 -4 35 -11 78 -14 83 -6 136 -27 153 -59 15 -27 4
-80 -21 -101 -21 -18 -90 -24 -90 -8 0 5 -39 12 -87 16 -49 3 -96 10 -105 15
-10 6 -25 10 -33 10 -8 0 -15 9 -15 20 0 25 -17 26 -24 3 -13 -47 -28 -164
-22 -170 3 -4 12 -1 18 5 14 14 105 16 110 2 2 -5 45 -12 96 -16 50 -4 92 -11
92 -16 0 -4 8 -4 18 1 9 6 28 12 42 15 54 12 93 127 76 220 -9 49 -46 86 -93
93 -21 3 -43 10 -49 14 -6 5 -50 12 -97 15 -48 4 -87 11 -87 15 0 5 -7 9 -16
9 -9 0 -22 8 -29 17 -11 15 -13 15 -22 -3z"/>
<path d="M2480 2730 c0 -5 -7 -10 -16 -10 -21 0 -75 -55 -92 -93 -15 -34 -16
-116 -2 -154 30 -78 121 -118 225 -100 107 19 169 157 116 260 -24 48 -61 87
-83 87 -9 0 -20 5 -23 10 -3 6 -33 10 -66 10 -33 0 -59 -4 -59 -10z"/>
<path d="M6522 2690 c-49 -35 -82 -100 -82 -161 0 -59 59 -159 93 -159 9 0 17
-5 19 -12 6 -18 140 -16 162 2 82 68 115 135 101 204 -8 37 -65 126 -82 126
-6 0 -13 5 -15 12 -3 8 -32 14 -79 16 -70 4 -76 2 -117 -28z"/>
<path d="M2655 2110 c-3 -5 -15 -10 -25 -10 -10 0 -25 -7 -34 -15 -8 -8 -18
-15 -23 -15 -16 0 -84 -87 -93 -120 -19 -66 -12 -104 34 -192 48 -93 93 -168
101 -168 3 0 10 11 15 25 5 14 22 31 37 38 16 6 34 17 41 24 7 7 20 13 28 13
8 0 14 4 14 9 0 14 42 21 62 10 28 -15 23 2 -24 86 -42 75 -58 91 -58 57 0
-21 -37 -57 -69 -67 -12 -3 -21 -10 -21 -15 0 -10 -49 -20 -67 -13 -7 3 -17
21 -22 41 -15 51 23 117 91 161 67 44 124 51 171 22 48 -30 62 -98 32 -151
-31 -53 -10 -60 41 -12 11 11 30 25 43 31 20 11 21 14 8 29 -9 9 -23 37 -33
62 -31 79 -100 160 -136 160 -10 0 -18 5 -18 10 0 6 -20 10 -44 10 -25 0 -48
-4 -51 -10z"/>
<path d="M6294 2047 c-6 -12 -23 -43 -38 -69 -27 -47 -27 -48 -7 -48 12 0 21
-3 21 -7 0 -5 19 -29 43 -55 23 -26 56 -64 74 -85 17 -21 45 -53 62 -72 17
-19 39 -52 49 -73 9 -20 22 -37 27 -37 6 0 22 24 38 54 l27 55 -34 0 c-26 0
-41 8 -65 35 -38 44 -38 53 -4 83 23 19 36 22 83 20 48 -3 55 -6 58 -25 2 -13
7 -23 10 -23 9 0 102 152 102 166 0 2 -25 4 -55 4 -30 0 -55 3 -55 8 0 8 -114
32 -155 32 -15 0 -24 4 -21 9 3 4 -18 11 -46 14 -28 4 -58 13 -68 22 -23 20
-33 19 -46 -8z m145 -147 c20 0 23 -2 11 -10 -8 -5 -11 -10 -6 -10 5 0 -1 -9
-14 -20 l-23 -20 -29 32 c-15 17 -28 34 -28 36 0 2 14 2 31 -2 17 -3 43 -6 58
-6z"/>
<path d="M6065 1690 c-11 -16 -23 -30 -27 -30 -5 0 -8 -4 -8 -10 0 -5 -9 -19
-20 -30 -23 -23 -26 -50 -5 -50 12 0 60 -88 52 -96 -7 -7 -77 9 -77 17 0 5 -7
9 -15 9 -8 0 -15 7 -15 15 0 8 -7 15 -15 15 -8 0 -15 -3 -15 -7 0 -8 -18 -30
-82 -103 l-30 -35 33 -7 c18 -3 35 -11 37 -17 2 -6 8 -11 14 -11 6 0 26 -15
44 -32 17 -18 45 -43 61 -55 62 -47 123 -110 123 -126 0 -28 26 -19 54 17 32
43 32 46 1 46 -14 0 -36 9 -48 21 -12 11 -35 30 -50 42 -34 26 -117 104 -117
110 0 2 11 2 25 -1 14 -2 25 -8 25 -12 0 -4 21 -11 48 -15 26 -4 52 -10 57
-15 6 -4 22 -10 38 -14 36 -9 35 5 -7 90 -40 79 -58 124 -50 124 3 0 15 -9 27
-21 12 -11 35 -30 50 -42 60 -46 127 -115 127 -131 0 -23 12 -19 37 12 12 15
34 42 49 61 29 34 39 61 24 61 -5 0 -10 -5 -12 -12 -5 -14 -20 -4 -94 59 -27
23 -60 51 -74 62 -90 75 -120 106 -120 122 0 28 -22 23 -45 -11z"/>
<path d="M3034 1694 c7 -17 -35 -62 -119 -129 -64 -52 -100 -87 -114 -113 -29
-54 3 -139 75 -200 32 -28 45 -32 93 -32 31 0 61 4 68 8 11 7 42 34 168 146
25 22 50 36 68 36 32 0 29 11 -22 70 l-31 35 0 -27 c0 -29 -15 -46 -100 -118
-30 -25 -61 -52 -70 -60 -26 -25 -68 -50 -85 -50 -9 0 -23 6 -31 14 -7 8 -18
16 -24 18 -6 2 -13 19 -16 39 -7 39 8 58 123 159 82 72 97 81 121 77 12 -2 24
-1 27 2 2 4 -21 34 -50 66 -30 33 -55 63 -55 68 0 4 -7 7 -16 7 -11 0 -14 -5
-10 -16z"/>
<path d="M3380 1325 c0 -14 -35 -78 -80 -147 -99 -153 -111 -168 -132 -168
-27 0 -12 -23 32 -47 38 -22 55 -19 45 9 -5 13 120 219 137 226 5 2 8 11 8 20
0 10 3 12 9 7 12 -13 34 -286 25 -319 -3 -14 -11 -26 -18 -26 -6 0 -18 -5 -26
-10 -16 -10 -6 -20 63 -63 l29 -18 -6 26 c-5 21 1 39 26 78 18 29 36 54 40 57
4 3 11 15 15 26 20 50 90 144 116 155 32 13 35 29 7 36 -11 3 -20 9 -20 13 0
5 -14 13 -31 19 -29 10 -31 9 -26 -11 6 -20 -23 -91 -42 -102 -15 -9 -18 116
-3 130 18 18 16 21 -30 51 -24 15 -45 30 -48 33 -8 9 -77 50 -84 50 -3 0 -6
-11 -6 -25z"/>
<path d="M5661 1273 c-1 -7 -10 -13 -21 -13 -18 0 -75 -32 -90 -51 -3 -4 -15
-9 -27 -13 -13 -4 -23 -12 -23 -17 0 -5 -6 -9 -14 -9 -8 0 -21 -6 -28 -12 -8
-7 -27 -21 -43 -30 -36 -20 -42 -34 -17 -40 19 -5 112 -136 112 -157 0 -6 5
-11 10 -11 6 0 10 -4 10 -9 0 -5 16 -35 35 -67 21 -35 33 -65 29 -76 -7 -24
16 -23 49 2 14 11 30 20 36 20 6 0 11 4 11 10 0 5 11 12 25 16 26 6 35 34 12
34 -8 0 -21 8 -29 18 -23 27 -73 120 -67 126 7 7 79 -26 79 -36 0 -4 6 -8 13
-8 24 0 70 -47 64 -64 -9 -22 10 -30 29 -12 8 9 22 16 30 16 8 0 14 3 14 8 0
4 20 18 45 32 50 27 59 50 20 50 -14 0 -25 5 -25 10 0 6 -6 10 -13 10 -8 0
-22 9 -32 20 -10 11 -24 20 -32 20 -7 0 -13 4 -13 9 0 5 -10 13 -22 17 -13 4
-25 9 -28 13 -3 3 -14 11 -25 18 -11 6 -18 17 -16 25 11 33 12 98 2 117 -7 12
-20 21 -31 21 -10 0 -21 6 -23 13 -4 10 -6 10 -6 0z m-32 -133 c12 -23 12 -30
-4 -63 -9 -20 -22 -37 -29 -37 -6 0 -21 21 -34 46 -18 35 -20 49 -12 65 16 28
60 22 79 -11z"/>
<path d="M3910 1031 c0 -9 -17 -35 -37 -58 -21 -22 -57 -62 -80 -89 -70 -83
-137 -150 -156 -157 -26 -10 -13 -24 28 -31 20 -4 33 -11 30 -17 -4 -5 6 -9
20 -9 22 0 25 3 20 21 -8 23 51 118 74 119 18 0 60 -45 72 -79 15 -39 3 -91
-21 -91 -33 0 -23 -28 13 -35 17 -4 37 -11 42 -15 6 -4 34 -15 63 -23 50 -15
63 -12 42 9 -16 16 18 374 37 396 14 16 13 18 -13 28 -16 6 -38 15 -49 20 -11
6 -35 14 -52 19 -28 8 -33 7 -33 -8z m0 -156 c0 -30 -3 -55 -7 -55 -5 1 -18 9
-31 20 l-23 19 26 36 c15 19 29 35 31 35 2 0 4 -25 4 -55z"/>
<path d="M5093 1006 c-29 -5 -53 -13 -53 -17 0 -5 -11 -9 -25 -9 -25 0 -36
-25 -14 -32 17 -6 -7 -355 -26 -385 -8 -12 -11 -24 -7 -26 12 -7 82 5 82 14 0
5 10 9 23 10 l22 0 -22 16 c-20 13 -23 24 -23 79 l0 64 50 0 c28 0 50 -4 50
-9 0 -5 8 -12 18 -15 30 -10 46 -49 32 -76 -11 -21 -11 -22 47 -14 32 3 60 10
63 14 3 5 22 11 43 15 44 9 46 15 8 36 -16 9 -41 40 -56 68 -16 28 -32 51 -37
51 -4 0 -8 5 -8 12 0 6 -22 44 -49 83 -27 39 -53 84 -58 100 -8 30 -8 30 -60
21z m27 -214 c0 -9 -11 -12 -32 -10 -29 3 -33 6 -32 31 4 75 2 73 34 31 16
-21 30 -45 30 -52z"/>
<path d="M4310 929 c0 -5 6 -20 14 -32 22 -33 3 -346 -21 -364 -9 -7 -14 -16
-10 -20 10 -10 208 -16 270 -9 98 13 151 83 151 201 0 93 -29 146 -105 193
-31 18 -51 22 -127 22 -50 0 -93 4 -96 9 -8 12 -76 12 -76 0z m236 -84 c34
-38 44 -70 44 -149 0 -58 -26 -116 -58 -131 -12 -5 -22 -13 -22 -17 0 -14 -31
-9 -47 8 -13 13 -15 37 -11 158 3 79 8 148 12 155 14 21 50 11 82 -24z"/>
</g>
</svg>
